# File created by Blade
# Date/Time:  Tue Jan 27 18:55:50 2015
# Frame Rate: 120.000 fps
#------------------------------------------------------
:FULLY-SPECIFIED
:DEGREES
1955
root 0.318703 31.512259 -4.515072 3.926853 -26.517386 -7.591580
Spine 3.724739 -4.760868 2.206804
Head 15.577262 -19.047288 6.485119
LeftShoulder -17.419399 19.157765 10.850989
LeftArm -2.219503 -35.530499 -77.754096
LeftForeArm 0.907603 0.000000 107.006254
LeftHand -13.121010 -0.000000 21.693325
LeftHandThumb1 -26.253704 0.000000 33.147579
RightShoulder -11.449437 -3.026082 -6.975633
RightArm 5.474905 -26.718886 77.139529
RightForeArm -27.135288 -0.000000 20.932303
RightHand -14.989097 -0.000000 11.302804
RightHandThumb1 -24.326973 -0.000000 -32.862282
LeftUpLeg -5.024321 18.347330 -7.027843
LeftLeg 15.090168 -0.000000 -0.000000
LeftFoot -38.570177 34.948309 -28.401154
LeftToeBase 9.593412 -0.000000 -0.000000
RightUpLeg -62.944991 -45.740506 13.066564
RightLeg 106.848594 -0.000000 -0.000000
RightFoot -21.243458 -27.807928 12.925584
RightToeBase 0.467843 -0.000000 -0.000000
1956
root 0.323302 31.511075 -4.524979 3.957578 -26.437369 -7.581726
Spine 3.744166 -4.769540 2.190254
Head 15.995779 -18.193381 6.438388
LeftShoulder -17.396171 19.121746 10.886430
LeftArm -2.088594 -35.340216 -77.728235
LeftForeArm 0.894568 0.000000 106.956063
LeftHand -13.225571 0.000000 21.803045
LeftHandThumb1 -26.253704 0.000000 33.147579
RightShoulder -11.425844 -2.952010 -7.005201
RightArm 5.498297 -26.688516 77.077499
RightForeArm -27.142912 -0.000000 20.942285
RightHand -15.050259 -0.000000 11.240502
RightHandThumb1 -24.326973 -0.000000 -32.862282
LeftUpLeg -5.100861 18.331156 -7.052878
LeftLeg 15.131139 -0.000000 -0.000000
LeftFoot -38.551609 34.918930 -28.366318
LeftToeBase 9.563663 -0.000000 -0.000000
RightUpLeg -62.934169 -45.644091 12.909072
RightLeg 106.534952 -0.000000 -0.000000
RightFoot -21.245272 -28.011791 12.953141
RightToeBase 0.352827 -0.000000 -0.000000
1957
root 0.329160 31.509992 -4.536218 3.993918 -26.351129 -7.582622
Spine 3.767483 -4.789863 2.200424
Head 16.382612 -17.308817 6.382294
LeftShoulder -17.373246 19.106652 10.890515
LeftArm -1.932042 -35.188602 -77.718004
LeftForeArm 0.915114 0.000000 106.908356
LeftHand -13.289993 -0.000000 21.844152
LeftHandThumb1 -26.253704 0.000000 33.147579
RightShoulder -11.399781 -2.896371 -7.051935
RightArm 5.547082 -26.621185 77.011349
RightForeArm -27.118341 -0.000000 20.983871
RightHand -15.080818 -0.000000 11.248611
RightHandThumb1 -24.326973 -0.000000 -32.862282
LeftUpLeg -5.175533 18.263357 -7.059482
LeftLeg 15.163354 -0.000000 -0.000000
LeftFoot -38.491247 34.942164 -28.246806
LeftToeBase 9.563207 -0.000000 -0.000000
RightUpLeg -62.927748 -45.551176 12.736955
RightLeg 106.151556 -0.000000 -0.000000
RightFoot -21.266357 -28.219107 12.975284
RightToeBase 0.516422 -0.000000 -0.000000
1958
root 0.336549 31.507725 -4.547994 4.018523 -26.260150 -7.573823
Spine 3.806820 -4.814063 2.195199
Head 16.754083 -16.451088 6.350183
LeftShoulder -17.337573 19.040703 10.908547
LeftArm -1.887474 -35.010465 -77.624078
LeftForeArm 0.925371 -0.000000 106.891913
LeftHand -13.246376 -0.000000 21.760906
LeftHandThumb1 -26.253704 0.000000 33.147579
RightShoulder -11.375316 -2.877713 -7.082574
RightArm 5.653926 -26.621328 76.893762
RightForeArm -27.128088 0.000000 21.035718
RightHand -15.181151 0.000000 11.110868
RightHandThumb1 -24.326973 -0.000000 -32.862282
LeftUpLeg -5.251565 18.210409 -7.079169
LeftLeg 15.208645 -0.000000 -0.000000
LeftFoot -38.470694 34.919845 -28.193126
LeftToeBase 9.532067 -0.000000 -0.000000
RightUpLeg -62.909142 -45.440784 12.507621
RightLeg 105.702878 -0.000000 -0.000000
RightFoot -21.219452 -28.413592 12.925597
RightToeBase 0.459003 -0.000000 -0.000000
1959
root 0.342337 31.506235 -4.561992 4.057411 -26.179432 -7.581428
Spine 3.841396 -4.816519 2.195873
Head 17.127969 -15.610424 6.305396
LeftShoulder -17.291910 18.992016 10.952156
LeftArm -1.796350 -34.886339 -77.621015
LeftForeArm 0.947308 -0.000000 106.864288
LeftHand -13.246311 -0.000000 21.665353
LeftHandThumb1 -26.253704 0.000000 33.147579
RightShoulder -11.344397 -2.828111 -7.107018
RightArm 5.712580 -26.504984 76.791299
RightForeArm -27.180946 -0.000000 21.131558
RightHand -15.204092 -0.000000 11.113736
RightHandThumb1 -24.326973 -0.000000 -32.862282
LeftUpLeg -5.350685 18.189697 -7.083018
LeftLeg 15.280417 -0.000000 -0.000000
LeftFoot -38.437085 34.863041 -28.137156
LeftToeBase 9.565170 -0.000000 -0.000000
RightUpLeg -62.899932 -45.317493 12.293632
RightLeg 105.167284 -0.000000 -0.000000
RightFoot -21.216618 -28.612398 12.855938
RightToeBase 0.632664 -0.000000 -0.000000
1960
root 0.349185 31.504170 -4.573133 4.068629 -26.111022 -7.594034
Spine 3.907941 -4.820585 2.208562
Head 17.505463 -14.767243 6.272839
LeftShoulder -17.260315 18.949279 10.977520
LeftArm -1.704926 -34.754480 -77.613715
LeftForeArm 0.924748 0.000000 106.849532
LeftHand -13.269112 -0.000000 21.669680
LeftHandThumb1 -26.253704 0.000000 33.147579
RightShoulder -11.314459 -2.803828 -7.143277
RightArm 5.807165 -26.452691 76.667542
RightForeArm -27.312678 0.000000 21.250181
RightHand -15.261461 -0.000000 11.065953
RightHandThumb1 -24.326973 -0.000000 -32.862282
LeftUpLeg -5.406860 18.155054 -7.076131
LeftLeg 15.340834 -0.000000 -0.000000
LeftFoot -38.429743 34.828362 -28.095938
LeftToeBase 9.544659 -0.000000 -0.000000
RightUpLeg -62.832652 -45.171580 11.995092
RightLeg 104.563469 -0.000000 -0.000000
RightFoot -21.126901 -28.750088 12.773032
RightToeBase 0.427285 -0.000000 -0.000000
1961
root 0.358677 31.501182 -4.580222 4.077148 -26.046433 -7.573515
Spine 3.958065 -4.828231 2.197026
Head 17.896396 -13.947122 6.213458
LeftShoulder -17.258936 18.935953 10.984509
LeftArm -1.586151 -34.632090 -77.633823
LeftForeArm 0.910590 -0.000000 106.831404
LeftHand -13.241492 0.000000 21.620057
LeftHandThumb1 -26.253704 0.000000 33.147579
RightShoulder -11.308408 -2.762768 -7.175881
RightArm 5.895558 -26.405700 76.510552
RightForeArm -27.294572 0.000000 21.391656
RightHand -15.277964 -0.000000 11.078920
RightHandThumb1 -24.326973 -0.000000 -32.862282
LeftUpLeg -5.466206 18.120565 -7.111948
LeftLeg 15.386021 -0.000000 -0.000000
LeftFoot -38.396362 34.836672 -28.024895
LeftToeBase 9.492152 -0.000000 -0.000000
RightUpLeg -62.743414 -45.003773 11.612787
RightLeg 103.899984 -0.000000 -0.000000
RightFoot -21.127657 -28.721574 12.729622
RightToeBase 0.547152 -0.000000 -0.000000
1962
root 0.366987 31.499524 -4.595429 4.117869 -25.989501 -7.604194
Spine 4.019494 -4.820794 2.222109
Head 18.245051 -13.153165 6.152406
LeftShoulder -17.249492 18.924883 10.991617
LeftArm -1.450389 -34.531384 -77.672926
LeftForeArm 0.902980 -0.000000 106.838006
LeftHand -13.254883 -0.000000 21.535010
LeftHandThumb1 -26.253704 0.000000 33.147579
RightShoulder -11.293739 -2.772188 -7.188784
RightArm 6.054394 -26.316446 76.337270
RightForeArm -27.355310 -0.000000 21.542389
RightHand -15.332311 -0.000000 10.993750
RightHandThumb1 -24.326973 -0.000000 -32.862282
LeftUpLeg -5.571640 18.119211 -7.101846
LeftLeg 15.485622 -0.000000 -0.000000
LeftFoot -38.454770 34.714724 -28.107601
LeftToeBase 9.505507 -0.000000 -0.000000
RightUpLeg -62.673682 -44.796874 11.270474
RightLeg 103.118791 -0.000000 -0.000000
RightFoot -20.977647 -28.671008 12.422411
RightToeBase 0.592548 -0.000000 -0.000000
1963
root 0.372016 31.498805 -4.608745 4.150580 -25.914317 -7.659405
Spine 4.085393 -4.834477 2.262029
Head 18.653359 -12.333703 6.081618
LeftShoulder -17.230203 18.904032 11.009800
LeftArm -1.363809 -34.439367 -77.698918
LeftForeArm 0.910693 -0.000000 106.861033
LeftHand -13.239489 -0.000000 21.428538
LeftHandThumb1 -26.253704 0.000000 33.147579
RightShoulder -11.253205 -2.768535 -7.197802
RightArm 6.177007 -26.209462 76.170267
RightForeArm -27.451720 -0.000000 21.699300
RightHand -15.383821 -0.000000 10.853696
RightHandThumb1 -24.326973 -0.000000 -32.862282
LeftUpLeg -5.646286 18.097562 -7.043042
LeftLeg 15.585724 -0.000000 -0.000000
LeftFoot -38.421025 34.656055 -28.004050
LeftToeBase 9.584032 -0.000000 -0.000000
RightUpLeg -62.587316 -44.613077 10.940815
RightLeg 102.230395 -0.000000 -0.000000
RightFoot -20.613220 -28.702069 11.807526
RightToeBase 0.322666 -0.000000 -0.000000
1964
root 0.378926 31.495368 -4.618427 4.129361 -25.850292 -7.657916
Spine 4.187933 -4.844277 2.239238
Head 19.047304 -11.544233 6.035122
LeftShoulder -17.225683 18.889692 11.045946
LeftArm -1.268912 -34.348891 -77.742361
LeftForeArm 0.894592 0.000000 106.881906
LeftHand -13.227087 -0.000000 21.400071
LeftHandThumb1 -26.253704 0.000000 33.147579
RightShoulder -11.238276 -2.794837 -7.208578
RightArm 6.384530 -26.166880 75.964705
RightForeArm -27.442654 0.000000 21.824716
RightHand -15.343581 -0.000000 10.804556
RightHandThumb1 -24.326973 -0.000000 -32.862282
LeftUpLeg -5.684631 18.113535 -7.042871
LeftLeg 15.672193 -0.000000 -0.000000
LeftFoot -38.429816 34.570405 -28.010525
LeftToeBase 9.529487 -0.000000 -0.000000
RightUpLeg -62.432972 -44.422748 10.453598
RightLeg 101.273797 -0.000000 -0.000000
RightFoot -20.324396 -28.378776 11.260934
RightToeBase 0.449066 -0.000000 -0.000000
1965
root 0.389965 31.492002 -4.630877 4.139752 -25.811318 -7.650063
Spine 4.264940 -4.824485 2.215150
Head 19.424429 -10.748149 6.000973
LeftShoulder -17.232999 18.889162 11.065719
LeftArm -1.147712 -34.270881 -77.808199
LeftForeArm 0.900099 -0.000000 106.911084
LeftHand -13.233943 -0.000000 21.311997
LeftHandThumb1 -26.253704 0.000000 33.147579
RightShoulder -11.216197 -2.769565 -7.233613
RightArm 6.478951 -26.073183 75.808258
RightForeArm -27.542605 -0.000000 22.043327
RightHand -15.352944 -0.000000 10.725930
RightHandThumb1 -24.326973 -0.000000 -32.862282
LeftUpLeg -5.760707 18.119900 -7.054709
LeftLeg 15.758484 -0.000000 -0.000000
LeftFoot -38.389532 34.481196 -27.941732
LeftToeBase 9.515062 -0.000000 -0.000000
RightUpLeg -62.323288 -44.174616 9.960987
RightLeg 100.185068 -0.000000 -0.000000
RightFoot -19.988474 -27.823072 10.667495
RightToeBase 0.416236 -0.000000 -0.000000
